<svg width="30" height="35" viewBox="0 0 30 35" fill="none" xmlns="http://www.w3.org/2000/svg">
<path d="M30 0L27.2669 30.6174L14.9816 34.0232L2.73018 30.6222L0 0H30Z" fill="#264DE4"/>
<path d="M15 31.4199L24.9271 28.6678L27.2627 2.50381H15V31.4199Z" fill="#2965F1"/>
<path d="M15 13.8611H6.25888L6.59549 17.6168H15V13.8611Z" fill="#EBEBEB"/>
<path d="M15 6.25957H14.987H5.58252L5.92393 10.0153H15V6.25957Z" fill="#EBEBEB"/>
<path d="M6.76331 19.4947L7.28948 25.3917L14.9827 27.5274L15 27.5226V23.6151L14.9835 23.6195L10.8008 22.49L10.5334 19.4947H8.50094H6.76331Z" fill="#EBEBEB"/>
<path d="M19.6117 17.6168L19.1758 22.4876L14.987 23.6182V27.5255L22.6864 25.3917L22.7429 24.7572L23.6254 14.8697L23.7171 13.8612L24.3951 6.25957H14.987V10.0153H20.2792L19.9374 13.8612H14.987V17.6168H19.6117Z" fill="white"/>
</svg>
