<svg width="152" height="148" viewBox="0 0 152 148" fill="none" xmlns="http://www.w3.org/2000/svg">
<g clip-path="url(#clip0_53_64)">
<path fill-rule="evenodd" clip-rule="evenodd" d="M76.0119 0.478027C34.3274 0.478027 0.527832 34.2726 0.527832 75.9621C0.527832 109.312 22.1576 137.606 52.1472 147.587C55.9211 148.287 57.3071 145.95 57.3071 143.957C57.3071 142.157 57.2371 136.21 57.2031 129.902C36.2034 134.469 31.7734 120.997 31.7734 120.997C28.3385 112.274 23.3915 109.953 23.3915 109.953C16.5416 105.268 23.9075 105.363 23.9075 105.363C31.4874 105.897 35.4774 113.143 35.4774 113.143C42.2113 124.682 53.1372 121.346 57.4451 119.418C58.1231 114.54 60.0781 111.208 62.237 109.324C45.4713 107.418 27.8475 100.944 27.8475 72.0201C27.8475 63.7802 30.7954 57.0453 35.6234 51.7604C34.8404 49.8584 32.2564 42.1805 36.3564 31.7836C36.3564 31.7836 42.6943 29.7537 57.1161 39.5205C63.139 37.8485 69.596 37.0106 76.0109 36.9806C82.4258 37.0106 88.8887 37.8485 94.9206 39.5205C109.328 29.7547 115.658 31.7826 115.658 31.7826C119.766 42.1785 117.183 49.8564 116.398 51.7574C121.238 57.0433 124.166 63.7772 124.166 72.0171C124.166 101.012 106.508 107.394 89.7007 109.263C92.4077 111.607 94.8206 116.2 94.8206 123.242C94.8206 133.342 94.7346 141.472 94.7346 143.957C94.7346 145.967 96.0916 148.319 99.9176 147.579C129.897 137.587 151.497 109.303 151.497 75.9631C151.497 34.2726 117.696 0.478027 76.0119 0.478027Z" fill="#FEFEFE"/>
<path d="M29.1256 108.852C28.9586 109.228 28.3686 109.342 27.8316 109.082C27.2816 108.836 26.9766 108.324 27.1536 107.948C27.3166 107.563 27.9066 107.456 28.4536 107.713C29.0016 107.96 29.3136 108.476 29.1256 108.852ZM32.1746 112.264C31.8146 112.598 31.1096 112.444 30.6346 111.916C30.1386 111.389 30.0476 110.684 30.4126 110.346C30.7826 110.013 31.4666 110.169 31.9596 110.696C32.4546 111.228 32.5516 111.926 32.1746 112.264ZM35.1506 116.614C34.6876 116.937 33.9306 116.636 33.4626 115.964C32.9996 115.292 32.9996 114.487 33.4726 114.164C33.9426 113.842 34.6876 114.134 35.1626 114.798C35.6226 115.481 35.6226 116.285 35.1506 116.614ZM39.2376 120.815C38.8236 121.271 37.9426 121.148 37.2976 120.525C36.6376 119.917 36.4536 119.053 36.8676 118.597C37.2876 118.14 38.1736 118.267 38.8236 118.887C39.4786 119.493 39.6776 120.363 39.2376 120.815ZM44.8626 123.252C44.6786 123.842 43.8326 124.112 42.9766 123.859C42.1216 123.601 41.5626 122.909 41.7366 122.312C41.9126 121.717 42.7666 121.437 43.6266 121.706C44.4796 121.963 45.0406 122.651 44.8626 123.252ZM51.0376 123.702C51.0576 124.325 50.3336 124.842 49.4376 124.852C48.5336 124.872 47.8026 124.368 47.7926 123.756C47.7926 123.126 48.5026 122.616 49.4026 122.601C50.3026 122.581 51.0376 123.084 51.0376 123.701M56.7876 122.727C56.8946 123.333 56.2716 123.957 55.3796 124.123C54.5036 124.285 53.6926 123.909 53.5816 123.308C53.4716 122.685 54.1066 122.062 54.9816 121.901C55.8746 121.745 56.6736 122.11 56.7876 122.727Z" fill="#FEFEFE"/>
</g>
<defs>
<clipPath id="clip0_53_64">
<rect width="150.97" height="147.24" fill="white" transform="translate(0.526855 0.473145)"/>
</clipPath>
</defs>
</svg>
