<svg width="30" height="35" viewBox="0 0 30 35" fill="none" xmlns="http://www.w3.org/2000/svg">
<path d="M30 0L27.2669 30.6174L14.9816 34.0233L2.73018 30.6222L0 0H30Z" fill="#E44D26"/>
<path d="M15 31.42L24.9271 28.6678L27.2627 2.50381H15V31.42Z" fill="#F16529"/>
<path d="M9.68695 10.0153H14.9999V6.25955H5.58246L5.67236 7.26715L6.59543 17.6168H14.9999V13.8612H10.0302L9.68695 10.0153Z" fill="#EBEBEB"/>
<path d="M10.5335 19.4947H6.76334L7.28951 25.3917L14.9827 27.5274L15 27.5226V23.6151L14.9836 23.6194L10.8008 22.49L10.5335 19.4947Z" fill="#EBEBEB"/>
<path d="M14.987 17.6168H19.6117L19.1758 22.4876L14.987 23.6182V27.5256L22.6864 25.3917L22.7429 24.7572L23.6254 14.8697L23.7171 13.8612H14.987V17.6168Z" fill="white"/>
<path d="M14.987 10.0061V10.0153H24.0588L24.1341 9.17111L24.3053 7.26715L24.3951 6.25955H14.987V10.0061Z" fill="white"/>
</svg>
