<svg width="30" height="37" viewBox="0 0 30 37" fill="none" xmlns="http://www.w3.org/2000/svg">
<path d="M15 16.1198C16.5136 16.1198 17.7406 14.8928 17.7406 13.3792C17.7406 11.8655 16.5136 10.6385 15 10.6385C13.4863 10.6385 12.2593 11.8655 12.2593 13.3792C12.2593 14.8928 13.4863 16.1198 15 16.1198Z" fill="#61DAFB"/>
<path d="M15 23.4578C17.1513 25.5501 19.2731 26.7878 20.9823 26.7878C21.5422 26.7878 22.0727 26.6699 22.5147 26.4047C24.0471 25.5206 24.6071 23.3104 24.0766 20.1572C23.9882 19.5972 23.8703 19.0373 23.723 18.4479C24.3124 18.2711 24.8428 18.0943 25.3733 17.9175C28.3497 16.7682 30 15.1768 30 13.4381C30 11.6699 28.3497 10.0786 25.3733 8.95874C24.8428 8.75246 24.3124 8.57564 23.723 8.42829C23.8703 7.8389 23.9882 7.27898 24.0766 6.71906C24.5776 3.50688 24.0177 1.26719 22.4853 0.383104C22.0432 0.117878 21.5128 0 20.9528 0C19.2731 0 17.1218 1.23772 14.9705 3.33006C12.8487 1.23772 10.7269 0 9.01768 0C8.45776 0 7.92731 0.117878 7.48526 0.383104C5.95285 1.26719 5.39293 3.47741 5.92338 6.63065C6.01179 7.19057 6.12967 7.75049 6.27701 8.33988C5.68762 8.5167 5.15717 8.69352 4.62672 8.87033C1.65029 10.0196 0 11.611 0 13.3497C0 15.1179 1.65029 16.7092 4.62672 17.8291C5.15717 18.0354 5.68762 18.2122 6.27701 18.3595C6.12967 18.9489 6.01179 19.5088 5.92338 20.0688C5.4224 23.222 5.98232 25.4617 7.48526 26.3163C7.92731 26.5815 8.45776 26.6994 9.01768 26.6994C10.7269 26.7583 12.8487 25.5206 15 23.4578ZM13.3497 19.4794C13.8802 19.5088 14.4401 19.5088 15 19.5088C15.5599 19.5088 16.1198 19.5088 16.6503 19.4794C16.1198 20.1866 15.5599 20.835 15 21.4538C14.4401 20.835 13.8802 20.1866 13.3497 19.4794ZM9.69548 16.444C9.99018 16.945 10.2554 17.4165 10.5796 17.888C9.66601 17.7701 8.81139 17.6228 7.98625 17.446C8.25147 16.6503 8.54617 15.8251 8.8998 15C9.13556 15.4715 9.40079 15.9725 9.69548 16.444ZM7.98625 9.34185C8.81139 9.16503 9.66601 9.01768 10.5796 8.8998C10.2849 9.37132 9.99018 9.84283 9.69548 10.3438C9.40079 10.8448 9.13556 11.3163 8.8998 11.8173C8.5167 10.9627 8.222 10.1375 7.98625 9.34185ZM9.60707 13.3792C9.99018 12.5835 10.4028 11.7878 10.8743 10.9921C11.3163 10.2259 11.8173 9.45972 12.3183 8.69352C13.2024 8.63458 14.0864 8.60511 15 8.60511C15.943 8.60511 16.8271 8.63458 17.6817 8.69352C18.2122 9.45972 18.6837 10.2259 19.1257 10.9921C19.5972 11.7878 20.0098 12.5835 20.3929 13.3792C20.0098 14.1749 19.5972 14.9705 19.1257 15.7662C18.6837 16.5324 18.1827 17.2986 17.6817 18.0648C16.7976 18.1238 15.9136 18.1532 15 18.1532C14.057 18.1532 13.1729 18.1238 12.3183 18.0648C11.7878 17.2986 11.3163 16.5324 10.8743 15.7662C10.4028 14.9705 9.99018 14.1749 9.60707 13.3792ZM21.1297 11.7878L20.334 10.3143C20.0393 9.81336 19.7741 9.34185 19.4499 8.87033C20.3635 8.98821 21.2181 9.13556 22.0432 9.31238C21.778 10.1375 21.4833 10.9627 21.1297 11.7878ZM21.1297 14.9705C21.4833 15.7957 21.778 16.6208 22.0432 17.4165C21.2181 17.5933 20.3635 17.7407 19.4499 17.8585C19.7446 17.387 20.0393 16.9155 20.334 16.4145C20.5992 15.9725 20.8644 15.4715 21.1297 14.9705ZM21.8075 25.1965C21.5717 25.3438 21.277 25.4028 20.9528 25.4028C19.5088 25.4028 17.7112 24.224 15.943 22.4558C16.7976 21.5422 17.6228 20.5108 18.4479 19.3615C19.833 19.2436 21.1591 19.0373 22.3969 18.7426C22.5442 19.2731 22.6326 19.8035 22.721 20.334C23.1336 22.8389 22.8094 24.6365 21.8075 25.1965ZM23.3399 9.66601C26.6405 10.609 28.6149 12.053 28.6149 13.3792C28.6149 14.5285 27.2593 15.6778 24.8723 16.5914C24.4008 16.7682 23.8703 16.945 23.3399 17.0923C22.9568 15.8841 22.4853 14.6464 21.8959 13.3792C22.4853 12.112 22.9862 10.8743 23.3399 9.66601ZM20.9823 1.3556C21.3065 1.3556 21.5717 1.41454 21.8369 1.56189C22.8094 2.12181 23.1631 3.88998 22.7505 6.42436C22.6621 6.92534 22.5442 7.45579 22.4263 8.01572C21.1886 7.75049 19.8625 7.5442 18.4774 7.39686C17.6817 6.24754 16.8271 5.21611 15.9725 4.30255C17.7407 2.56385 19.5383 1.3556 20.9823 1.3556ZM16.6503 7.27898C16.1198 7.24951 15.5599 7.24951 15 7.24951C14.4401 7.24951 13.8802 7.24951 13.3497 7.27898C13.8802 6.57171 14.4401 5.92338 15 5.30452C15.5599 5.92338 16.1198 6.60118 16.6503 7.27898ZM8.19253 1.56189C8.42829 1.41454 8.72299 1.3556 9.04715 1.3556C10.4912 1.3556 12.2888 2.53438 14.057 4.30255C13.2024 5.21611 12.3772 6.24754 11.5521 7.39686C10.167 7.51473 8.84086 7.72102 7.60314 8.01572C7.4558 7.48526 7.36739 6.95481 7.27898 6.42436C6.8664 3.91945 7.19057 2.15128 8.19253 1.56189ZM6.66012 17.0923C3.35953 16.1493 1.38507 14.7053 1.38507 13.3792C1.38507 12.2299 2.74067 11.0805 5.1277 10.167C5.59921 9.99018 6.12967 9.81336 6.66012 9.66601C7.04322 10.8743 7.51473 12.112 8.10413 13.3792C7.51473 14.6464 7.01375 15.9136 6.66012 17.0923ZM7.27898 20.334C7.36739 19.833 7.48527 19.3026 7.60314 18.7426C8.84086 19.0079 10.167 19.2141 11.5521 19.3615C12.3477 20.5108 13.2024 21.5422 14.057 22.4558C12.2888 24.1945 10.4912 25.4028 9.04715 25.4028C8.72299 25.4028 8.45776 25.3438 8.19253 25.1965C7.19057 24.6365 6.8664 22.8389 7.27898 20.334ZM6.04126 32.4754C6.68959 31.6798 6.71906 30.7957 6.36542 29.9116C6.01179 29.0275 5.27505 28.6149 4.36149 28.5855C3.27112 28.556 2.15128 28.5855 1.0609 28.5855H0.854617V36.2181H1.7387V33.3301H3.12377C3.30059 33.3301 3.44794 33.389 3.53635 33.5363L5.30452 36.277C5.33399 36.3359 5.4224 36.4244 5.48134 36.4244H6.63065C5.92338 35.334 5.24558 34.3026 4.53831 33.2416C5.15717 33.1532 5.68762 32.947 6.04126 32.4754ZM1.7387 32.4165V29.499H2.06287C2.74067 29.499 3.44794 29.4695 4.12574 29.5285C4.92141 29.558 5.48134 30.1768 5.48134 30.9725C5.48134 31.7682 4.83301 32.387 4.03733 32.4165C3.33006 32.446 2.62279 32.4165 1.7387 32.4165ZM13.1434 32.7996C12.6719 30.7367 10.7859 30.2063 9.34185 30.8546C8.222 31.3556 7.72102 32.3281 7.69155 33.5363C7.66208 34.4499 7.92731 35.275 8.63458 35.8939C9.43025 36.6012 10.4027 36.6896 11.4047 36.5128C11.9646 36.3949 12.4656 36.1297 12.8487 35.7171C12.7014 35.5108 12.554 35.3045 12.4067 35.1277C11.5815 35.835 10.668 36.0707 9.66601 35.5992C9.01768 35.275 8.69352 34.4794 8.63458 33.89H13.2024V33.5069C13.2318 33.2416 13.2024 33.0059 13.1434 32.7996ZM8.69352 33.2711C8.60511 32.387 9.48919 31.444 10.4617 31.444C11.5815 31.4145 12.2888 32.0923 12.3183 33.2711H8.69352ZM17.7407 30.7073C17.2986 30.6189 16.8271 30.5894 16.3851 30.6189C15.6778 30.6778 15.0589 31.002 14.558 31.5324C14.7053 31.7387 14.8232 31.945 15 32.1807C15.0589 32.1218 15.1179 32.0629 15.1768 32.0334C15.6483 31.5914 16.2083 31.3556 16.8861 31.4145C17.4165 31.444 17.9175 31.6208 18.0648 32.1513C18.1827 32.5639 18.1532 33.0059 18.1827 33.4479C18.0943 33.4479 18.0648 33.4185 18.0354 33.389C17.3281 32.7996 16.5324 32.6817 15.6778 32.888C14.8821 33.0943 14.3811 33.7132 14.3222 34.5088C14.2633 35.4224 14.6758 36.1002 15.4715 36.4244C15.9725 36.6306 16.5324 36.6306 17.0629 36.5128C17.4754 36.4244 17.6523 36.1886 18.2416 35.8644V36.2475H19.0668C19.0668 35.0688 19.0963 33.6248 19.0668 32.2692C19.0668 31.4145 18.5658 30.8841 17.7407 30.7073ZM18.1532 34.4204C18.1238 34.5088 18.1532 34.5972 18.1532 34.6857C18.1532 35.3045 18.0059 35.5108 17.4165 35.7466C17.0039 35.8939 16.5619 35.9528 16.1198 35.8055C15.6189 35.6581 15.2652 35.2161 15.2652 34.7151C15.2358 34.2141 15.5599 33.7132 16.0609 33.5658C16.7387 33.3301 17.3576 33.4774 17.9175 33.89C18.0943 34.0373 18.2122 34.1847 18.1532 34.4204ZM22.7505 31.5029C23.5167 31.2672 24.224 31.4145 24.7544 32.0629L24.8428 32.1218C25.0491 31.945 25.2259 31.7682 25.4617 31.5619C25.3733 31.4735 25.3438 31.4145 25.2849 31.3261C24.4303 30.4126 22.7505 30.2947 21.7191 31.0314C20.275 32.0923 20.3045 34.1552 21.0118 35.2456C21.6896 36.277 22.6621 36.6306 23.8114 36.4833C24.4892 36.3949 25.0491 36.0707 25.4912 35.5108C25.2849 35.334 25.0786 35.1572 24.8723 34.9509C24.8134 35.0098 24.7839 35.0393 24.7544 35.0982C23.9587 35.9823 22.6326 35.8939 21.9253 34.9509C21.5128 34.391 21.4244 33.7426 21.5422 33.0943C21.6012 32.3576 21.9843 31.7682 22.7505 31.5029ZM28.8802 35.5108C28.8212 35.5403 28.7917 35.5697 28.7917 35.5697C28.556 35.7466 28.3202 35.776 28.055 35.6876C27.7898 35.5697 27.7603 35.334 27.7308 35.0982V31.7387C27.7308 31.6798 27.7308 31.7976 27.7603 31.5029H28.8802V30.6189H27.7014V29.1454H26.8173V30.7367H26.0511C25.9921 30.7367 25.9037 30.7957 25.9037 30.8546C25.8743 31.0609 25.9037 31.2083 25.9037 31.5029H26.8468V35.275C26.8468 35.7466 26.9646 36.1591 27.3772 36.3949C27.8193 36.6601 28.6739 36.6012 29.057 36.277C29.1159 36.2475 29.1454 36.1297 29.1454 36.1002C29.057 35.9234 28.9686 35.7171 28.8802 35.5108Z" fill="#61DAFB"/>
</svg>
