<svg width="33" height="33" viewBox="0 0 33 33" fill="none" xmlns="http://www.w3.org/2000/svg">
<path d="M16.891 18.9994C18.2717 18.9994 19.391 17.8801 19.391 16.4994C19.391 15.1187 18.2717 13.9994 16.891 13.9994C15.5103 13.9994 14.391 15.1187 14.391 16.4994C14.391 17.8801 15.5103 18.9994 16.891 18.9994Z" fill="#00D8FF"/>
<path d="M16.891 22.2314C13.8861 22.3041 10.8888 21.8991 8.01099 21.0314C6.68161 20.61 5.44173 19.9462 4.35399 19.0734C3.93892 18.7753 3.59326 18.3909 3.34073 17.9466C3.0882 17.5023 2.93478 17.0086 2.89099 16.4994C2.89099 14.8464 4.70699 13.2264 7.74899 12.1664C10.7037 11.2272 13.7909 10.772 16.891 10.8184C19.9497 10.7757 22.9955 11.2227 25.913 12.1424C27.1933 12.5506 28.3911 13.1823 29.451 14.0084C29.859 14.2927 30.1994 14.6631 30.4483 15.0936C30.6971 15.5241 30.8483 16.004 30.891 16.4994C30.891 18.2174 28.861 19.9584 25.591 21.0404C22.7689 21.8798 19.8348 22.2815 16.891 22.2314ZM16.891 12.0144C13.9251 11.9748 10.9718 12.4075 8.14199 13.2964C5.34199 14.2734 4.08699 15.6094 4.08699 16.4964C4.08699 17.4244 5.43599 18.8834 8.39799 19.8964C11.1511 20.7223 14.0176 21.1067 16.891 21.0354C19.7074 21.0858 22.5149 20.7047 25.216 19.9054C28.291 18.8864 29.691 17.4254 29.691 16.4994C29.6405 16.1816 29.5247 15.8778 29.3509 15.607C29.177 15.3363 28.9489 15.1045 28.681 14.9264C27.7327 14.1936 26.6627 13.6337 25.52 13.2724C22.729 12.3962 19.816 11.9715 16.891 12.0144Z" fill="#00D8FF"/>
<path d="M11.211 28.9684C10.7445 28.9791 10.2835 28.8659 9.87497 28.6404C8.44297 27.8144 7.94697 25.4324 8.54797 22.2674C9.21061 19.2385 10.3588 16.3367 11.948 13.6744C13.4387 11.0035 15.3471 8.58828 17.601 6.52036C18.5941 5.61507 19.7398 4.89291 20.985 4.38736C21.4353 4.1763 21.9266 4.06689 22.424 4.06689C22.9213 4.06689 23.4126 4.1763 23.863 4.38736C25.352 5.24536 25.845 7.87336 25.15 11.2464C24.4669 14.1109 23.3485 16.8538 21.834 19.3794C20.3957 22.0187 18.5473 24.4129 16.358 26.4724C15.3288 27.4131 14.1343 28.1553 12.835 28.6614C12.3148 28.8544 11.7657 28.9582 11.211 28.9684ZM12.984 14.2684C11.4681 16.8177 10.3676 19.5921 9.72397 22.4874C9.17097 25.4024 9.70197 27.1554 10.474 27.6014C11.274 28.0644 13.216 27.6254 15.574 25.5654C17.664 23.5923 19.4282 21.3006 20.801 18.7754C22.2519 16.3609 23.3247 13.7385 23.982 10.9994C24.636 7.82436 24.071 5.88036 23.269 5.41836C22.9684 5.30319 22.6472 5.25163 22.3256 5.26695C22.0041 5.28227 21.6892 5.36413 21.401 5.50736C20.2926 5.96471 19.2737 6.61399 18.391 7.42536C16.2376 9.40615 14.4147 11.7183 12.991 14.2744L12.984 14.2684Z" fill="#00D8FF"/>
<path d="M22.568 28.9814C21.213 28.9814 19.492 28.1614 17.7 26.6204C15.4067 24.5336 13.466 22.0898 11.953 19.3834C10.3838 16.7577 9.24471 13.8979 8.57904 10.9124C8.29034 9.59886 8.23685 8.24456 8.42104 6.91237C8.46362 6.41818 8.6141 5.93934 8.86187 5.50963C9.10964 5.07992 9.44866 4.7098 9.85504 4.42537C11.342 3.56437 13.865 4.44937 16.44 6.73537C18.5806 8.75755 20.3984 11.0961 21.83 13.6694C23.3983 16.2337 24.5493 19.0309 25.24 21.9564C25.5412 23.3181 25.5876 24.7238 25.377 26.1024C25.3269 26.6108 25.1675 27.1023 24.9096 27.5433C24.6517 27.9844 24.3015 28.3644 23.883 28.6574C23.4812 28.8801 23.0273 28.9919 22.568 28.9814ZM12.988 18.7814C14.4395 21.3678 16.2933 23.7067 18.48 25.7104C20.729 27.6454 22.513 28.0614 23.28 27.6104C24.08 27.1454 24.67 25.2474 24.062 22.1764C23.3959 19.3833 22.2919 16.7133 20.791 14.2654C19.4249 11.8025 17.6898 9.56323 15.646 7.62537C13.222 5.47337 11.256 4.99237 10.455 5.45637C10.2054 5.65925 10.0005 5.91169 9.85334 6.19776C9.70618 6.48382 9.61993 6.79729 9.60004 7.11837C9.44104 8.30646 9.49284 9.51327 9.75304 10.6834C10.3933 13.5385 11.4858 16.273 12.989 18.7834L12.988 18.7814Z" fill="#00D8FF"/>
</svg>
